<svg width="18" height="13" viewBox="0 0 18 13" fill="none" xmlns="http://www.w3.org/2000/svg">
<path d="M13.7468 2.60932V1.49601H15.7908V0H7.77145V1.49601H10.0764V2.60932H7.82798C7.07828 2.60932 6.35928 2.90714 5.82915 3.43727C5.29903 3.96739 5.00121 4.68639 5.00121 5.43609V5.57961H3.47911V3.67045H1.43514C1.05412 3.6716 0.689096 3.82377 0.420081 4.0936C0.151067 4.36343 4.99376e-06 4.72891 6.73261e-06 5.10993V9.56752C-0.00056752 9.75329 0.0355989 9.93734 0.106425 10.1091C0.177251 10.2808 0.281338 10.4369 0.412697 10.5682C0.544056 10.6996 0.700095 10.8037 0.871834 10.8745C1.04357 10.9453 1.22762 10.9815 1.41339 10.9809H3.47911V9.05871H5.00121V12.0333H14.2556C15.2483 12.0322 16.2001 11.6373 16.902 10.9354C17.604 10.2334 17.9988 9.28167 18 8.28896V2.60932H13.7468ZM10.4156 9.32399L10.9809 7.41918H9.46316L12.0725 5.12297L11.6811 6.81904H12.9553L10.4156 9.32399Z" fill="white"/>
</svg>
